<?xml version="1.0"?>
<svg xmlns="http://www.w3.org/2000/svg" viewBox="0 0 100 100"><path d="M77.5 28.8L61.2 12.5C60 11.3 59 10.8 58 10.8H22.6c-.9 0-1.7.8-1.7 1.7v75.1c0 .9.8 1.7 1.7 1.7h54.8c.9 0 1.7-.8 1.7-1.7V32c0-1-.5-2.1-1.6-3.2z" fill="#e0e0e0"/><path d="M62.4 28.8h15.1L61.2 12.5v15.1c0 .6.6 1.2 1.2 1.2z" fill="#666766"/><path d="M62.3 8.3c-.5-.5-1.2-.8-1.9-.8H22.6c-2.7 0-5 2.2-5 5v75.1c0 2.7 2.2 5 5 5h54.8c2.7 0 5-2.2 5-5V31.1c0-1.8-.7-3.4-1.9-4.7L62.3 8.3zm-1.1 4.2l16.2 16.2h-15c-.7 0-1.2-.5-1.2-1.2m17.9 60c0 .9-.8 1.7-1.7 1.7H22.6c-.9 0-1.7-.8-1.7-1.7v-75c0-.9.8-1.7 1.7-1.7H58v16.8c0 2.5 2 4.5 4.5 4.5h16.7v55.4z" fill="#010101"/><path d="M37.238 58.005l-2.705 9.067-2.705-9.067h-4.305l4.039 12.762-4.039 13.448h4.305l2.705-9.905 2.705 9.905h4.343l-4-13.448 4-12.762zm10.895 16.61h-3.847v2.362c0 3.543 1.371 7.733 7.009 7.733 4.724 0 7.048-3.009 7.048-7.505 0-5.333-3.314-6.971-6.667-8.305-2.857-1.104-3.543-2.514-3.543-3.771 0-.8-.19-3.772 3.162-3.772 2.857 0 3.162 2.743 3.162 3.886v.914h3.886v-.914c0-3.581-1.371-7.733-7.048-7.733-4.762 0-7.009 2.781-7.009 7.352 0 4.838 2.362 5.981 6.895 8 2.857 1.219 3.276 3.277 3.276 4.343 0 .915-.305 3.619-3.162 3.619-2.933 0-3.162-2.59-3.162-3.847zm12.953 9.6h6.438c5.372.114 7.619-3.543 7.619-7.353V65.396c0-3.924-2.247-7.391-7.619-7.391h-6.438zm3.886-22.362H67.6c3.2 0 3.619 2.552 3.619 3.657v11.238c0 1.067-.419 3.619-3.619 3.619h-2.628z"/><metadata xmlns:d="https://loading.io/stock/"><d:name>xsd</d:name><d:tags>type,postfix,suffix,data,xsd,file format</d:tags><d:license>by</d:license><d:slug>8006hu</d:slug></metadata></svg>