<?xml version="1.0" encoding="utf-8"?>
<svg viewBox="0 0 22 22" style="enable-background:new 0 0 22 22;" xmlns="http://www.w3.org/2000/svg">
  <defs>
    <style type="text/css">
	.st0{fill:#3867C8;stroke:#3867C8;stroke-miterlimit:10;}
	.st1{fill:#FFFFFF;}
</style>
  </defs>
  <circle class="st0" cx="11" cy="11" r="10.5"/>
  <path d="M 16.945 16.369 L 15.205 16.369 L 14.205 13.589 L 10.385 13.589 L 9.405 16.369 L 7.685 16.369 L 11.425 6.329 L 13.205 6.329 L 16.945 16.369 Z M 10.865 12.189 L 13.775 12.189 L 12.835 9.469 C 12.768 9.282 12.675 8.992 12.555 8.599 C 12.435 8.212 12.352 7.926 12.305 7.739 C 12.185 8.299 12.005 8.912 11.765 9.579 L 10.865 12.189 Z" transform="matrix(1, 0, 0, 1, -1.348497986793518, -1.4993070363998413)" style="fill: rgb(255, 255, 255); white-space: pre;"/>
  <path d="M 37.659 20.905 L 22.499 20.905 L 22.499 19.185 L 24.729 18.795 L 24.729 3.115 L 22.499 2.735 L 22.499 0.995 L 37.239 0.995 L 37.239 5.785 L 35.079 5.785 L 34.769 3.075 L 27.419 3.075 L 27.419 9.555 L 34.759 9.555 L 34.759 11.675 L 27.419 11.675 L 27.419 18.885 L 35.209 18.885 L 35.509 16.135 L 37.659 16.135 L 37.659 20.905 ZM 47.404 20.905 L 40.254 20.905 L 40.254 19.185 L 42.484 18.795 L 42.484 8.235 L 40.254 7.845 L 40.254 6.115 L 44.894 6.115 L 45.084 8.315 C 45.578 7.528 46.194 6.918 46.934 6.485 C 47.674 6.052 48.521 5.835 49.474 5.835 C 51.068 5.835 52.301 6.302 53.174 7.235 C 54.048 8.175 54.484 9.618 54.484 11.565 L 54.484 18.795 L 56.714 19.185 L 56.714 20.905 L 49.564 20.905 L 49.564 19.185 L 51.794 18.795 L 51.794 11.625 C 51.794 10.318 51.538 9.392 51.024 8.845 C 50.511 8.298 49.724 8.025 48.664 8.025 C 47.891 8.025 47.204 8.212 46.604 8.585 C 46.011 8.958 45.534 9.468 45.174 10.115 L 45.174 18.795 L 47.404 19.185 L 47.404 20.905 ZM 63.289 21.135 C 62.196 21.135 61.329 20.815 60.689 20.175 C 60.049 19.528 59.729 18.502 59.729 17.095 L 59.729 8.105 L 57.389 8.105 L 57.389 6.115 L 59.729 6.115 L 59.729 2.545 L 62.419 2.545 L 62.419 6.115 L 65.629 6.115 L 65.629 8.105 L 62.419 8.105 L 62.419 17.095 C 62.419 17.802 62.559 18.325 62.839 18.665 C 63.126 18.998 63.506 19.165 63.979 19.165 C 64.299 19.165 64.652 19.135 65.039 19.075 C 65.432 19.022 65.739 18.972 65.959 18.925 L 66.329 20.685 C 65.936 20.805 65.456 20.912 64.889 21.005 C 64.316 21.092 63.782 21.135 63.289 21.135 ZM 74.516 21.195 C 73.149 21.195 71.959 20.882 70.946 20.255 C 69.939 19.628 69.159 18.762 68.606 17.655 C 68.053 16.542 67.776 15.255 67.776 13.795 L 67.776 13.195 C 67.776 11.788 68.066 10.532 68.646 9.425 C 69.226 8.318 69.996 7.445 70.956 6.805 C 71.916 6.158 72.966 5.835 74.106 5.835 C 75.439 5.835 76.553 6.108 77.446 6.655 C 78.346 7.202 79.023 7.972 79.476 8.965 C 79.936 9.952 80.166 11.115 80.166 12.455 L 80.166 14.135 L 70.566 14.135 L 70.526 14.205 C 70.546 15.152 70.713 15.992 71.026 16.725 C 71.339 17.458 71.793 18.035 72.386 18.455 C 72.979 18.875 73.689 19.085 74.516 19.085 C 75.429 19.085 76.229 18.955 76.916 18.695 C 77.603 18.435 78.199 18.078 78.706 17.625 L 79.756 19.375 C 79.229 19.882 78.529 20.312 77.656 20.665 C 76.783 21.018 75.736 21.195 74.516 21.195 Z M 70.626 11.965 L 70.646 12.035 L 77.476 12.035 L 77.476 11.675 C 77.476 10.968 77.349 10.332 77.096 9.765 C 76.843 9.205 76.469 8.765 75.976 8.445 C 75.476 8.118 74.853 7.955 74.106 7.955 C 73.506 7.955 72.959 8.132 72.466 8.485 C 71.973 8.838 71.566 9.315 71.246 9.915 C 70.933 10.515 70.726 11.198 70.626 11.965 ZM 89.374 20.905 L 82.224 20.905 L 82.224 19.185 L 84.454 18.795 L 84.454 8.235 L 82.224 7.845 L 82.224 6.115 L 86.864 6.115 L 87.094 7.995 L 87.124 8.255 C 87.544 7.502 88.061 6.912 88.674 6.485 C 89.288 6.052 89.991 5.835 90.784 5.835 C 91.071 5.835 91.361 5.862 91.654 5.915 C 91.954 5.962 92.168 6.008 92.294 6.055 L 91.934 8.555 L 90.064 8.445 C 89.351 8.405 88.754 8.568 88.274 8.935 C 87.788 9.302 87.414 9.795 87.154 10.415 L 87.154 18.795 L 89.374 19.185 L 89.374 20.905 ZM 104.099 26.875 C 103.893 26.875 103.619 26.852 103.279 26.805 C 102.946 26.752 102.689 26.705 102.509 26.665 L 102.779 24.545 C 102.933 24.558 103.146 24.572 103.419 24.585 C 103.693 24.605 103.879 24.615 103.979 24.615 C 104.553 24.615 105.019 24.395 105.379 23.955 C 105.739 23.515 106.076 22.918 106.389 22.165 L 107.029 20.605 L 101.789 8.065 L 100.209 7.845 L 100.209 6.115 L 106.419 6.115 L 106.419 7.845 L 104.619 8.125 L 107.509 15.515 L 108.209 17.445 L 108.289 17.445 L 111.709 8.125 L 109.819 7.845 L 109.819 6.115 L 115.899 6.115 L 115.899 7.845 L 114.369 8.065 L 108.549 23.175 C 108.276 23.888 107.946 24.525 107.559 25.085 C 107.173 25.645 106.696 26.085 106.129 26.405 C 105.569 26.718 104.893 26.875 104.099 26.875 ZM 123.534 21.195 C 122.168 21.195 120.988 20.872 119.994 20.225 C 119.008 19.585 118.244 18.698 117.704 17.565 C 117.171 16.432 116.904 15.135 116.904 13.675 L 116.904 13.375 C 116.904 11.915 117.171 10.618 117.704 9.485 C 118.244 8.345 119.008 7.452 119.994 6.805 C 120.988 6.158 122.158 5.835 123.504 5.835 C 124.871 5.835 126.048 6.158 127.034 6.805 C 128.028 7.452 128.791 8.342 129.324 9.475 C 129.864 10.608 130.134 11.908 130.134 13.375 L 130.134 13.675 C 130.134 15.142 129.864 16.442 129.324 17.575 C 128.791 18.708 128.031 19.595 127.044 20.235 C 126.058 20.875 124.888 21.195 123.534 21.195 Z M 123.534 19.085 C 124.388 19.085 125.104 18.852 125.684 18.385 C 126.264 17.912 126.701 17.268 126.994 16.455 C 127.294 15.642 127.444 14.715 127.444 13.675 L 127.444 13.375 C 127.444 12.335 127.294 11.405 126.994 10.585 C 126.701 9.772 126.261 9.132 125.674 8.665 C 125.094 8.192 124.371 7.955 123.504 7.955 C 122.644 7.955 121.924 8.192 121.344 8.665 C 120.758 9.132 120.321 9.772 120.034 10.585 C 119.741 11.405 119.594 12.335 119.594 13.375 L 119.594 13.675 C 119.594 14.715 119.741 15.642 120.034 16.455 C 120.321 17.268 120.761 17.912 121.354 18.385 C 121.941 18.852 122.668 19.085 123.534 19.085 ZM 138.722 21.195 C 137.115 21.195 135.862 20.678 134.962 19.645 C 134.062 18.618 133.612 17.015 133.612 14.835 L 133.612 8.235 L 131.912 7.845 L 131.912 6.115 L 133.612 6.115 L 136.302 6.115 L 136.302 14.865 C 136.302 16.438 136.535 17.522 137.002 18.115 C 137.462 18.708 138.185 19.005 139.172 19.005 C 140.132 19.005 140.922 18.812 141.542 18.425 C 142.168 18.038 142.642 17.488 142.962 16.775 L 142.962 8.235 L 140.982 7.845 L 140.982 6.115 L 142.962 6.115 L 145.652 6.115 L 145.652 18.795 L 147.352 19.185 L 147.352 20.905 L 143.232 20.905 L 143.052 18.715 C 142.592 19.508 141.995 20.118 141.262 20.545 C 140.528 20.978 139.682 21.195 138.722 21.195 ZM 156.353 20.905 L 149.203 20.905 L 149.203 19.185 L 151.433 18.795 L 151.433 8.235 L 149.203 7.845 L 149.203 6.115 L 153.843 6.115 L 154.073 7.995 L 154.103 8.255 C 154.523 7.502 155.04 6.912 155.653 6.485 C 156.266 6.052 156.97 5.835 157.763 5.835 C 158.05 5.835 158.34 5.862 158.633 5.915 C 158.933 5.962 159.146 6.008 159.273 6.055 L 158.913 8.555 L 157.043 8.445 C 156.33 8.405 155.733 8.568 155.253 8.935 C 154.766 9.302 154.393 9.795 154.133 10.415 L 154.133 18.795 L 156.353 19.185 L 156.353 20.905 ZM 173.088 21.135 C 171.994 21.135 171.128 20.815 170.488 20.175 C 169.848 19.528 169.528 18.502 169.528 17.095 L 169.528 8.105 L 167.188 8.105 L 167.188 6.115 L 169.528 6.115 L 169.528 2.545 L 172.218 2.545 L 172.218 6.115 L 175.428 6.115 L 175.428 8.105 L 172.218 8.105 L 172.218 17.095 C 172.218 17.802 172.358 18.325 172.638 18.665 C 172.924 18.998 173.304 19.165 173.778 19.165 C 174.098 19.165 174.451 19.135 174.838 19.075 C 175.231 19.022 175.538 18.972 175.758 18.925 L 176.128 20.685 C 175.734 20.805 175.254 20.912 174.688 21.005 C 174.114 21.092 173.581 21.135 173.088 21.135 ZM 184.315 21.195 C 182.948 21.195 181.758 20.882 180.745 20.255 C 179.738 19.628 178.958 18.762 178.405 17.655 C 177.851 16.542 177.575 15.255 177.575 13.795 L 177.575 13.195 C 177.575 11.788 177.865 10.532 178.445 9.425 C 179.025 8.318 179.795 7.445 180.755 6.805 C 181.715 6.158 182.765 5.835 183.905 5.835 C 185.238 5.835 186.351 6.108 187.245 6.655 C 188.145 7.202 188.821 7.972 189.275 8.965 C 189.735 9.952 189.965 11.115 189.965 12.455 L 189.965 14.135 L 180.365 14.135 L 180.325 14.205 C 180.345 15.152 180.511 15.992 180.825 16.725 C 181.138 17.458 181.591 18.035 182.185 18.455 C 182.778 18.875 183.488 19.085 184.315 19.085 C 185.228 19.085 186.028 18.955 186.715 18.695 C 187.401 18.435 187.998 18.078 188.505 17.625 L 189.555 19.375 C 189.028 19.882 188.328 20.312 187.455 20.665 C 186.581 21.018 185.535 21.195 184.315 21.195 Z M 180.425 11.965 L 180.445 12.035 L 187.275 12.035 L 187.275 11.675 C 187.275 10.968 187.148 10.332 186.895 9.765 C 186.641 9.205 186.268 8.765 185.775 8.445 C 185.275 8.118 184.651 7.955 183.905 7.955 C 183.305 7.955 182.758 8.132 182.265 8.485 C 181.771 8.838 181.365 9.315 181.045 9.915 C 180.731 10.515 180.525 11.198 180.425 11.965 ZM 197.663 20.905 L 191.613 20.905 L 191.613 19.185 L 193.253 18.865 L 197.673 13.425 L 193.353 8.165 L 191.893 7.845 L 191.893 6.115 L 197.683 6.115 L 197.683 7.845 L 196.213 8.015 L 199.243 11.785 L 202.203 7.995 L 200.613 7.845 L 200.613 6.115 L 206.313 6.115 L 206.313 7.845 L 204.813 8.165 L 200.803 13.385 L 205.413 18.865 L 206.943 19.185 L 206.943 20.905 L 200.673 20.905 L 200.673 19.185 L 202.443 19.035 L 199.203 15.085 L 196.063 19.035 L 197.663 19.185 L 197.663 20.905 ZM 213.721 21.135 C 212.627 21.135 211.761 20.815 211.121 20.175 C 210.481 19.528 210.161 18.502 210.161 17.095 L 210.161 8.105 L 207.821 8.105 L 207.821 6.115 L 210.161 6.115 L 210.161 2.545 L 212.851 2.545 L 212.851 6.115 L 216.061 6.115 L 216.061 8.105 L 212.851 8.105 L 212.851 17.095 C 212.851 17.802 212.991 18.325 213.271 18.665 C 213.557 18.998 213.937 19.165 214.411 19.165 C 214.731 19.165 215.084 19.135 215.471 19.075 C 215.864 19.022 216.171 18.972 216.391 18.925 L 216.761 20.685 C 216.367 20.805 215.887 20.912 215.321 21.005 C 214.747 21.092 214.214 21.135 213.721 21.135 ZM 232.25 20.905 L 225.1 20.905 L 225.1 19.185 L 227.33 18.795 L 227.33 1.695 L 225.1 1.315 L 225.1 -0.425 L 230.02 -0.425 L 230.02 8.085 C 230.533 7.372 231.157 6.818 231.89 6.425 C 232.63 6.032 233.453 5.835 234.36 5.835 C 235.94 5.835 237.17 6.312 238.05 7.265 C 238.923 8.212 239.36 9.668 239.36 11.635 L 239.36 18.795 L 241.59 19.185 L 241.59 20.905 L 234.44 20.905 L 234.44 19.185 L 236.67 18.795 L 236.67 11.605 C 236.67 10.385 236.407 9.485 235.88 8.905 C 235.353 8.318 234.573 8.025 233.54 8.025 C 232.8 8.025 232.127 8.202 231.52 8.555 C 230.913 8.902 230.413 9.378 230.02 9.985 L 230.02 18.795 L 232.25 19.185 L 232.25 20.905 ZM 249.953 21.195 C 248.587 21.195 247.397 20.882 246.383 20.255 C 245.377 19.628 244.597 18.762 244.043 17.655 C 243.49 16.542 243.213 15.255 243.213 13.795 L 243.213 13.195 C 243.213 11.788 243.503 10.532 244.083 9.425 C 244.663 8.318 245.433 7.445 246.393 6.805 C 247.353 6.158 248.403 5.835 249.543 5.835 C 250.877 5.835 251.99 6.108 252.883 6.655 C 253.783 7.202 254.46 7.972 254.913 8.965 C 255.373 9.952 255.603 11.115 255.603 12.455 L 255.603 14.135 L 246.003 14.135 L 245.963 14.205 C 245.983 15.152 246.15 15.992 246.463 16.725 C 246.777 17.458 247.23 18.035 247.823 18.455 C 248.417 18.875 249.127 19.085 249.953 19.085 C 250.867 19.085 251.667 18.955 252.353 18.695 C 253.04 18.435 253.637 18.078 254.143 17.625 L 255.193 19.375 C 254.667 19.882 253.967 20.312 253.093 20.665 C 252.22 21.018 251.173 21.195 249.953 21.195 Z M 246.063 11.965 L 246.083 12.035 L 252.913 12.035 L 252.913 11.675 C 252.913 10.968 252.787 10.332 252.533 9.765 C 252.28 9.205 251.907 8.765 251.413 8.445 C 250.913 8.118 250.29 7.955 249.543 7.955 C 248.943 7.955 248.397 8.132 247.903 8.485 C 247.41 8.838 247.003 9.315 246.683 9.915 C 246.37 10.515 246.163 11.198 246.063 11.965 ZM 264.812 20.905 L 257.662 20.905 L 257.662 19.185 L 259.892 18.795 L 259.892 8.235 L 257.662 7.845 L 257.662 6.115 L 262.302 6.115 L 262.532 7.995 L 262.562 8.255 C 262.982 7.502 263.499 6.912 264.112 6.485 C 264.725 6.052 265.429 5.835 266.222 5.835 C 266.509 5.835 266.799 5.862 267.092 5.915 C 267.392 5.962 267.605 6.008 267.732 6.055 L 267.372 8.555 L 265.502 8.445 C 264.789 8.405 264.192 8.568 263.712 8.935 C 263.225 9.302 262.852 9.795 262.592 10.415 L 262.592 18.795 L 264.812 19.185 L 264.812 20.905 ZM 275.834 21.195 C 274.468 21.195 273.278 20.882 272.264 20.255 C 271.258 19.628 270.478 18.762 269.924 17.655 C 269.371 16.542 269.094 15.255 269.094 13.795 L 269.094 13.195 C 269.094 11.788 269.384 10.532 269.964 9.425 C 270.544 8.318 271.314 7.445 272.274 6.805 C 273.234 6.158 274.284 5.835 275.424 5.835 C 276.758 5.835 277.871 6.108 278.764 6.655 C 279.664 7.202 280.341 7.972 280.794 8.965 C 281.254 9.952 281.484 11.115 281.484 12.455 L 281.484 14.135 L 271.884 14.135 L 271.844 14.205 C 271.864 15.152 272.031 15.992 272.344 16.725 C 272.658 17.458 273.111 18.035 273.704 18.455 C 274.298 18.875 275.008 19.085 275.834 19.085 C 276.748 19.085 277.548 18.955 278.234 18.695 C 278.921 18.435 279.518 18.078 280.024 17.625 L 281.074 19.375 C 280.548 19.882 279.848 20.312 278.974 20.665 C 278.101 21.018 277.054 21.195 275.834 21.195 Z M 271.944 11.965 L 271.964 12.035 L 278.794 12.035 L 278.794 11.675 C 278.794 10.968 278.668 10.332 278.414 9.765 C 278.161 9.205 277.788 8.765 277.294 8.445 C 276.794 8.118 276.171 7.955 275.424 7.955 C 274.824 7.955 274.278 8.132 273.784 8.485 C 273.291 8.838 272.884 9.315 272.564 9.915 C 272.251 10.515 272.044 11.198 271.944 11.965 ZM 287.243 20.905 L 284.543 20.905 L 284.543 18.145 L 287.243 18.145 L 287.243 20.905 Z" transform="matrix(1, 0, 0, 1, 0, 0)" style="fill: rgb(51, 51, 51); white-space: pre;"/>
</svg>