<?xml version="1.0" encoding="utf-8"?>
<svg viewBox="0 0 22 22" style="enable-background:new 0 0 22 22;" xmlns="http://www.w3.org/2000/svg">
  <defs>
    <style type="text/css">
	.st0{fill:#3867C8;stroke:#3867C8;stroke-miterlimit:10;}
	.st1{fill:#FFFFFF;}
</style>
  </defs>
  <circle class="st0" cx="11" cy="11" r="10.5"/>
  <path d="M 9.335 8.036 L 9.335 11.296 L 10.475 11.296 C 11.235 11.296 11.785 11.156 12.125 10.876 C 12.465 10.596 12.635 10.176 12.635 9.616 C 12.635 9.049 12.452 8.646 12.085 8.406 C 11.718 8.159 11.162 8.036 10.415 8.036 L 9.335 8.036 Z M 10.955 12.656 L 9.335 12.656 L 9.335 16.646 L 7.705 16.646 L 7.705 6.656 L 10.525 6.656 C 11.818 6.656 12.775 6.896 13.395 7.376 C 14.015 7.863 14.325 8.593 14.325 9.566 C 14.325 10.806 13.678 11.693 12.385 12.226 L 15.205 16.646 L 13.345 16.646 L 10.955 12.656 Z" transform="matrix(1, 0, 0, 1, 0, 0)" style="fill: rgb(255, 255, 255); white-space: pre;"/>
</svg>