<?xml version="1.0" encoding="utf-8"?>
<svg viewBox="0 0 22 22" style="enable-background:new 0 0 22 22;" xmlns="http://www.w3.org/2000/svg">
  <defs>
    <style type="text/css">
	.st0{fill:#3867C8;stroke:#3867C8;stroke-miterlimit:10;}
	.st1{fill:#FFFFFF;}
</style>
  </defs>
  <circle class="st0" cx="11" cy="11" r="10.5"/>
  <path d="M 20.006 10.659 L 17.976 10.659 L 12.656 2.289 L 10.236 2.289 L 10.236 10.659 L 8.476 10.659 L 8.476 -8.951 L 14.696 -8.951 C 15.356 -8.951 15.979 -8.824 16.566 -8.571 C 17.146 -8.318 17.656 -7.974 18.096 -7.541 C 18.536 -7.101 18.879 -6.588 19.126 -6.001 C 19.379 -5.414 19.506 -4.788 19.506 -4.121 L 19.506 -2.531 C 19.506 -1.871 19.379 -1.244 19.126 -0.651 C 18.879 -0.064 18.536 0.446 18.096 0.879 C 17.656 1.319 17.146 1.666 16.566 1.919 C 15.979 2.166 15.356 2.289 14.696 2.289 L 20.006 10.659 Z M 17.736 -2.531 L 17.736 -4.121 C 17.736 -4.561 17.656 -4.968 17.496 -5.341 C 17.329 -5.721 17.106 -6.054 16.826 -6.341 C 16.539 -6.628 16.209 -6.854 15.836 -7.021 C 15.456 -7.181 15.046 -7.261 14.606 -7.261 L 10.236 -7.261 L 10.236 0.609 L 14.606 0.609 C 15.046 0.609 15.456 0.529 15.836 0.369 C 16.209 0.202 16.539 -0.024 16.826 -0.311 C 17.106 -0.598 17.329 -0.931 17.496 -1.311 C 17.656 -1.691 17.736 -2.098 17.736 -2.531 Z" transform="matrix(0.6362509727478027, 0, 0, 0.6691950559616089, 2.220181941986084, 10.501312255859375)" style="fill: rgb(255, 255, 255); white-space: pre;"/>
</svg>